<?xml version="1.0" encoding="UTF-8" standalone="no"?>
<!-- Generator: Adobe Illustrator 19.1.0, SVG Export Plug-In . SVG Version: 6.00 Build 0)  -->

<svg
   xmlns:dc="http://purl.org/dc/elements/1.1/"
   xmlns:cc="http://creativecommons.org/ns#"
   xmlns:rdf="http://www.w3.org/1999/02/22-rdf-syntax-ns#"
   xmlns:svg="http://www.w3.org/2000/svg"
   xmlns="http://www.w3.org/2000/svg"
   xmlns:sodipodi="http://sodipodi.sourceforge.net/DTD/sodipodi-0.dtd"
   xmlns:inkscape="http://www.inkscape.org/namespaces/inkscape"
   version="1.1"
   id="Layer_1"
   x="0px"
   y="0px"
   viewBox="0 0 80.599998 61.799999"
   xml:space="preserve"
   inkscape:version="0.91 r13725"
   sodipodi:docname="email.svg"
   width="80.599998"
   height="61.799999"><metadata
     id="metadata11"><rdf:RDF><cc:Work
         rdf:about=""><dc:format>image/svg+xml</dc:format><dc:type
           rdf:resource="http://purl.org/dc/dcmitype/StillImage" /><dc:title></dc:title></cc:Work></rdf:RDF></metadata><defs
     id="defs9" /><sodipodi:namedview
     pagecolor="#ffffff"
     bordercolor="#666666"
     borderopacity="1"
     objecttolerance="10"
     gridtolerance="10"
     guidetolerance="10"
     inkscape:pageopacity="0"
     inkscape:pageshadow="2"
     inkscape:window-width="1093"
     inkscape:window-height="754"
     id="namedview7"
     showgrid="false"
     fit-margin-top="2"
     fit-margin-left="2"
     fit-margin-right="2"
     fit-margin-bottom="2"
     inkscape:zoom="2.6222222"
     inkscape:cx="40.3"
     inkscape:cy="30.9"
     inkscape:window-x="55"
     inkscape:window-y="34"
     inkscape:window-maximized="0"
     inkscape:current-layer="Layer_1" /><style
     type="text/css"
     id="style3">
	.st0{fill:#E6E6E6;}
	.st1{fill:#333333;}
	.st2{fill:#8CC63F;}
	.st3{fill:#FF0000;}
	.st4{fill:none;stroke:#E6E6E6;stroke-width:3;stroke-miterlimit:10;}
	.st5{fill:#990000;}
	.st6{fill:#FFFFFF;}
	.st7{fill:#EE3424;}
	.st8{fill:#0055A4;}
	.st9{fill:#008A5F;}
	.st10{fill:#FDBB30;}
	.st11{fill:#01247D;}
	.st12{fill:#CF142B;}
	.st13{fill:#009A63;}
	.st14{fill:#FF823D;}
	.st15{fill:#BF0A30;}
	.st16{fill:#002868;}
	.st17{fill:#004990;}
	.st18{fill:#EF3E42;}
</style><path
     class="st1"
     d="M 78.6,59.8 2,59.8 2,2 l 76.6,0 0,57.8 0,0 z m -67.5,-5.4 58.5,0 -19.3,-19.7 -3.6,3.7 c -1.6,1.6 -3.8,2.5 -6.2,2.5 0,0 0,0 0,0 -2.4,0 -4.6,-0.9 -6.2,-2.5 l -3.7,-3.8 -19.5,19.8 0,0 z M 7.3,11.2 7.3,50.6 26.7,30.8 7.3,11.2 l 0,0 z m 46.8,19.8 19.2,19.6 0,-39 -19.2,19.4 0,0 z M 11.1,7.4 38,34.7 c 0.6,0.6 1.5,0.9 2.4,0.9 0,0 0,0 0,0 0.9,0 1.9,-0.3 2.4,-0.9 l 27.1,-27.3 -58.8,0 0,0 z"
     id="path5"
     style="fill:#5ea9dd;fill-opacity:1"
     inkscape:connector-curvature="0" /></svg>